PathFileType	4	(X/Y/Z)	3_2_73_p0_0-548.trc
DataRate	CameraRate	NumFrames	NumMarkers	Units	OrigDataRate	OrigDataStartFrame	OrigNumFrames
58.0	58.0	5	27	m	58.0	274	549
Frame#	Time	RHip			RKnee			RAnkle			RBigToe			RSmallToe			RHeel			LHip			LKnee			LAnkle			LBigToe			LSmallToe			LHeel			Neck			Head			Nose			RShoulder			RElbow			RWrist			RThumb			RIndex			RPinky			LShoulder			LElbow			LWrist			LThumb			LIndex			LPinky			
		X1	Y1	Z1	X2	Y2	Z2	X3	Y3	Z3	X4	Y4	Z4	X5	Y5	Z5	X6	Y6	Z6	X7	Y7	Z7	X8	Y8	Z8	X9	Y9	Z9	X10	Y10	Z10	X11	Y11	Z11	X12	Y12	Z12	X13	Y13	Z13	X14	Y14	Z14	X15	Y15	Z15	X16	Y16	Z16	X17	Y17	Z17	X18	Y18	Z18	X19	Y19	Z19	X20	Y20	Z20	X21	Y21	Z21	X22	Y22	Z22	X23	Y23	Z23	X24	Y24	Z24	X25	Y25	Z25	X26	Y26	Z26	X27	Y27	Z27	
274	4.724137931034483	0.181565317380622	0.3699078206344198	0.9015437839292587	0.16954015991699795	0.3435178229478775	1.3562405400080668	0.13657213692804837	0.4458390876692631	1.8109698314794076	0.15429465009694757	0.21150143636325827	1.7743994316988432	0.20531169053554305	0.291243994239564	1.8036529444145732	0.13419056852604153	0.5107997780784411	1.8923979788572252	-0.024998244034224973	0.3590503809012184	0.8920674451215896	-0.03273867367240523	0.3628419979573897	1.362873345109897	-0.015658122481505655	0.425230918106134	1.8180301699645638	0.01658397934012269	0.23960402409528422	1.8049729469087525	-0.04817511244589915	0.2872624706803905	1.8201112592760773	-0.0018417760778878995	0.494989743920304	1.8729681600295685	0.09309257578244375	0.35468819346830405	0.3770143228914051	0.10579761636457784	0.21322639361903398	0.14017933287613357	0.09647885454040779	0.17589462796361433	0.2661071370168232	0.24693353769192325	0.3184097419733204	0.44793895823203067	0.3159025633356715	0.39598922445339596	0.7052168425009566	0.393751757555785	0.18903205002704918	0.8450999065207453	0.36433163935177837	0.06680404011452237	0.9239568472474867	0.37238476505052726	0.07713012957732338	0.9648483177147296	0.38816674601495144	0.12538247855076304	0.9713881986168018	-0.05383005799080201	0.38390018481762384	0.44361432331883605	-0.14884727179145807	0.3952721075473311	0.6572628057978311	-0.29289589284075856	0.2648210451293975	0.7958452749887229	-0.3360794183907677	0.19506241231465535	0.8863078298496416	-0.34943861785987174	0.17884486013437362	0.8987281444155857	-0.3728459168088253	0.31129364504473833	0.932306834313138
275	4.741379310344827	0.1810742838616123	0.37105436237049777	0.8972261571985977	0.16876805709645024	0.3437924420218457	1.3605133561059362	0.1364556217190791	0.44576289711863293	1.8107210988682747	0.15450471596788865	0.21117297107372268	1.7740273185321491	0.20551788489784453	0.29090772758732947	1.8033414344792171	0.13421245263460602	0.5109570833460565	1.8924691096976223	-0.024360921317606282	0.35897635948853307	0.8882419175718941	-0.03312945487979549	0.36089088055615215	1.3578341709154556	-0.019466109757373153	0.4227891789968374	1.81688245344834	0.012328921228787112	0.23664448668158616	1.8034751582724855	-0.04819731782375527	0.2871526268149919	1.8202247801441895	-0.0031849755535815726	0.495587731831126	1.879617664541151	0.09306565427709299	0.3545679989222824	0.37691961010590813	0.10784316825728889	0.22470628243035765	0.1368558615797906	0.09664716021202087	0.1758382315238187	0.2660188520819487	0.246888754922104	0.31853130194575213	0.447859670462133	0.32063795265844214	0.38265715978664616	0.6866753065641117	0.4169446596414993	0.18898306888859992	0.8241463253433196	0.38923842695812966	0.08627054003914776	0.9142487089191237	0.41571912825017787	0.08164915798594997	0.9424262899199016	0.4314180980279305	0.17511336462933988	0.9700087919697533	-0.05377273279996048	0.38309565379382704	0.4472390252498644	-0.1670541118345793	0.4063365716327742	0.6524630400185841	-0.3066554190799551	0.27433790002969544	0.7823420587943521	-0.35070130007657785	0.17704850391488433	0.8514339547132382	-0.3910209171855749	0.21616656778117185	0.88098239766489	-0.40104344166987393	0.29030742140551524	0.9102431723987061
276	4.758620689655173	0.17936202073484575	0.3619155083879633	0.9024683521474672	0.16949586236323358	0.3436731129740566	1.3559463507164775	0.1388860835657317	0.4585477837060004	1.8174591183614581	0.156282520126901	0.2042364444012001	1.7696017725408693	0.20293894088636352	0.2949052850677709	1.8104424894509197	0.13683344107307124	0.5100781794556412	1.8833965106067585	-0.024157210397754605	0.3603858299011107	0.8932250950749482	-0.0313707593870422	0.3733218185868958	1.3631069248988874	-0.011519326099726428	0.4269658523674149	1.818842298071806	0.018301156150702894	0.22254435261239217	1.7948340204560933	-0.04243534283770684	0.27182189954241803	1.8107721532088312	-0.006446314267310312	0.47825693143353354	1.8682583926779075	0.09300554942715014	0.3545873794584675	0.3768429497617688	0.10571310489075433	0.2140014681101279	0.13386512035294276	0.09663524605232204	0.17591852797003568	0.26602690701334775	0.246717434902425	0.31859997155942776	0.4476239410735155	0.3251147491380109	0.3672683789204748	0.6757218260074964	0.4273958239282855	0.18786107881799582	0.8041729410523474	0.4380148447005128	0.07060334379082235	0.8700122074884609	0.4619446615574533	0.07785571175032346	0.8956290317689466	0.4721861239526228	0.1407530595155742	0.9127835731150712	-0.051493752017464284	0.36774858016468087	0.4421398074049773	-0.1816730957107808	0.4148185071688107	0.6537063768362407	-0.32936774178632444	0.2627415311149985	0.7643640263331478	-0.3853183206320099	0.19881577466673986	0.8254061222970012	-0.421822815558067	0.20751488557015305	0.8367117486948786	-0.4198179421762885	0.2494624000853023	0.8750190409900837
277	4.775862068965517	0.17710838216530442	0.35155697378182754	0.9036476656819631	0.1703883366211979	0.3436440140477411	1.3514017589785265	0.14007463931791095	0.4585039480655727	1.812835757705935	0.16027811010592655	0.20486650082608965	1.769432937535919	0.20294329289170332	0.2937293018387513	1.8097652788369978	0.13494535282750808	0.5094134218994123	1.881984524483941	-0.023765943544994308	0.3628375352942361	0.9022455062296372	-0.024817701109665566	0.3611525390318792	1.3612127897628075	-0.010184426061770292	0.4270816637172794	1.8143192311111205	0.018286021582638236	0.22228368426003234	1.7945411602412278	-0.043014206303641764	0.2698139035283465	1.8050374622996936	-0.005133017129288518	0.48034189202745803	1.8639447551896897	0.08921935027772174	0.3522128840237533	0.3693741383288307	0.1009776902335452	0.2248931559895241	0.13395583005278586	0.09654787699477976	0.17621498750240658	0.2660185464496654	0.24620896968056824	0.3181579854653836	0.44063214195582756	0.3454309321706001	0.33634231606755516	0.6531523652883575	0.4721399274391491	0.21137826005780502	0.7631411884027597	0.4916667113337056	0.0897119530986447	0.8499920015777688	0.5063490060215582	0.05258596743008377	0.8816431959903497	0.5113374644002323	0.1314646941477117	0.9027704728417415	-0.05757297254650661	0.38089515877961583	0.4398738179625946	-0.18943431558796447	0.40811085706467926	0.6398973008505534	-0.3480234106784241	0.2487655042290308	0.717510993009333	-0.42145812200746974	0.20905389049761042	0.7891855685243727	-0.44398047002672547	0.19857962093427747	0.7945976696150927	-0.44162547869044594	0.22970526889079457	0.8052218864836778
278	4.793103448275862	0.17349885844171362	0.335120972402727	0.8954373435481524	0.166311229094647	0.32958458498336685	1.3457702984503666	0.14009147255527676	0.4586743257656361	1.812968609489789	0.15604725506512598	0.202070385030475	1.7677948563715795	0.2026502422241187	0.29284442256205817	1.8091629747406497	0.1427892001681397	0.5290909241028632	1.8974219694120544	-0.024011635510482222	0.36119014083314505	0.8975868359170718	-0.026943471390228405	0.3468394770422736	1.3510496882756249	-0.010135689591968625	0.42685690347609556	1.8143083357604426	0.011615497017602755	0.20582262911829685	1.780486039166069	-0.04302790583009134	0.269504547662677	1.8044512218518833	-0.005056014897934863	0.4796148266295893	1.8635187350687608	0.08910492251068557	0.35226977901219875	0.36927103599073235	0.10098492499297082	0.22465507721539243	0.1337659035027699	0.09184982386890102	0.18708600064107886	0.26673618620408207	0.24343579351048192	0.3071372496661504	0.4391335640548577	0.3686631845793732	0.3391595697252503	0.6416392143425272	0.5056478865120356	0.19504820819392651	0.7345456149160196	0.5110755481998331	0.13645286561422323	0.8258029302955424	0.5524997377015356	0.0809128107206956	0.8345697891440909	0.5433018494206143	0.13798452794566954	0.8421261420076432	-0.06526376487630736	0.3807934850939459	0.4363741902515964	-0.19483070504862804	0.38800980793369405	0.6273052427899443	-0.37052706270490576	0.254859881464813	0.6796648470506891	-0.4434134196311165	0.21199933407709756	0.7545083526693428	-0.4791320223926962	0.2133081767979681	0.7546708335752695	-0.4761319032190389	0.25458368030831496	0.7572152043360927
